<svg xmlns="http://www.w3.org/2000/svg" xmlns:xlink="http://www.w3.org/1999/xlink" version="1.1" x="0px" y="0px" viewBox="0 0 100 125" style="enable-background:new 0 0 100 100;" xml:space="preserve" fill="#fff" ><path d="M90,64c-0.1,0-0.3,0-0.4,0L75.8,36.5c0.7-0.5,1.2-1.4,1.2-2.4c0-1.7-1.3-3-3-3c-0.9,0-1.7,0.3-2.2,0.9L53.6,19.8  c0.2-0.6,0.4-1.2,0.4-1.8c0-2.2-1.8-4-4-4s-4,1.8-4,4c0,0.6,0.2,1.2,0.4,1.7L28.2,31.9C27.6,31.4,26.9,31,26,31c-1.7,0-3,1.3-3,3  c0,1,0.5,1.9,1.2,2.4L10.4,64c-0.1,0-0.3,0-0.4,0c-1.1,0-2,0.9-2,2s0.9,2,2,2s2-0.9,2-2c0-0.6-0.3-1.1-0.7-1.5l13.8-27.6  C25.4,37,25.7,37,26,37s0.6,0,0.9-0.1l13.8,27.6C40.3,64.9,40,65.4,40,66c0,1.1,0.9,2,2,2s2-0.9,2-2s-0.9-2-2-2c-0.1,0-0.3,0-0.4,0  L27.8,36.4C28.5,35.9,29,35,29,34c0-0.4-0.1-0.8-0.3-1.2L47,20.6c0.7,0.9,1.8,1.4,3,1.4s2.3-0.6,3-1.4l18.3,12.2  C71.1,33.1,71,33.6,71,34c0,1,0.5,1.9,1.2,2.4L58.4,64c-0.1,0-0.3,0-0.4,0c-1.1,0-2,0.9-2,2c0,0.6,0.3,1.1,0.7,1.5L50.4,80  c-0.1,0-0.3,0-0.4,0c-1.1,0-2,0.9-2,2s0.9,2,2,2s2-0.9,2-2c0-0.6-0.3-1.1-0.7-1.5L57.6,68c0.1,0,0.3,0,0.4,0s0.3,0,0.4,0l6.3,12.5  C64.3,80.9,64,81.4,64,82c0,1.1,0.9,2,2,2s2-0.9,2-2s-0.9-2-2-2c-0.1,0-0.3,0-0.4,0l-6.3-12.5c0.4-0.4,0.7-0.9,0.7-1.5  s-0.3-1.1-0.7-1.5l13.8-27.6C73.4,37,73.7,37,74,37s0.6,0,0.9-0.1l13.8,27.6C88.3,64.9,88,65.4,88,66c0,1.1,0.9,2,2,2s2-0.9,2-2  S91.1,64,90,64z"/></svg>
